<mxfile host="app.diagrams.net" modified="2024-05-12T19:14:52.220Z" agent="Mozilla/5.0 (Windows NT 10.0; Win64; x64) AppleWebKit/537.36 (KHTML, like Gecko) Chrome/121.0.0.0 Safari/537.36 OPR/107.0.0.0 (Edition Yx GX 03)" version="23.1.5" etag="lEXZqQULAgeMR9KC7MPW" type="github">
  <diagram name="Страница — 1" id="flmsg24fxHTaYpUsAVI9">
    <mxGraphModel>
      <root>
        <mxCell id="0" />
        <mxCell id="1" parent="0" />
      </root>
    </mxGraphModel>
  </diagram>
</mxfile>
